<?xml version="1.0" encoding="UTF-8" standalone="no"?>
<!DOCTYPE svg PUBLIC "-//W3C//DTD SVG 1.1//EN" "http://www.w3.org/Graphics/SVG/1.1/DTD/svg11.dtd">
<svg width="100%" height="100%" viewBox="0 0 532 532" version="1.1" xmlns="http://www.w3.org/2000/svg" xmlns:xlink="http://www.w3.org/1999/xlink" xml:space="preserve" xmlns:serif="http://www.serif.com/" style="fill-rule:evenodd;clip-rule:evenodd;stroke-linejoin:round;stroke-miterlimit:2;">
    <g transform="matrix(1.04314,0,0,1.04314,7.30196,26.0784)">
        <circle cx="248" cy="230" r="255" style="fill:rgb(255,255,242);"/>
    </g>
    <circle cx="270.76" cy="260.934" r="86.349" style="fill:rgb(255,182,182);"/>
    <path d="M221.19,360.052L217.289,320.619L295.19,306.052L341.19,418.052L261.19,510.052L204.19,398.052L221.19,360.052Z" style="fill:rgb(255,182,182);fill-rule:nonzero;"/>
    <path d="M216.037,340.357L233.069,344.205C233.069,344.205 219.68,301.751 224.225,297.698C228.769,293.645 239.905,300.031 239.905,300.031L251.607,313.151L265.861,298.639C265.861,298.639 281.336,279.396 287.395,273.992C293.454,268.588 283.721,248.529 283.721,248.529C283.721,248.529 373.613,224.289 340.164,180.689C340.164,180.689 320.553,146.504 314.167,157.64C307.781,168.776 300.165,151.09 300.165,151.09L276.912,155.512C276.912,155.512 231.017,128.452 187.458,186.342C143.899,244.232 216.037,340.357 216.037,340.357L216.037,340.357L216.037,340.357Z" style="fill:rgb(47,46,65);fill-rule:nonzero;"/>
    <path d="M433.16,472.95C385.97,511.21 327.59,532 266,532C209.76,532 156.19,514.66 111.38,482.52C111.46,481.68 111.54,480.85 111.61,480.02C112.8,467.02 113.86,454.38 114.56,443.9C117.27,403.21 212.2,376.09 212.2,376.09C212.2,376.09 212.63,376.52 213.49,377.27C218.73,381.87 240,398.55 277.3,403.21C310.56,407.37 321.51,387.64 324.82,378.19C325.82,375.31 326.12,373.38 326.12,373.38L423.76,419.49C430.13,428.59 432.62,448.19 433.11,470.22C433.13,471.13 433.15,472.03 433.16,472.95L433.16,472.95Z" style="fill:rgb(255,102,102);fill-rule:nonzero;"/>
</svg>
